<?xml version="1.0" standalone="no"?>
<!DOCTYPE svg PUBLIC "-//W3C//DTD SVG 20010904//EN"
 "http://www.w3.org/TR/2001/REC-SVG-20010904/DTD/svg10.dtd">
<svg version="1.0" xmlns="http://www.w3.org/2000/svg"
 width="1000.000000pt" height="1000.000000pt" viewBox="0 0 1000.000000 1000.000000"
 preserveAspectRatio="xMidYMid meet">
<metadata>
Created by potrace 1.11, written by Peter Selinger 2001-2013
</metadata>
<g transform="translate(0.000000,1000.000000) scale(0.100000,-0.100000)"
fill="#000000" stroke="none">
<path d="M4926 9741 c-3 -4 -27 -8 -53 -7 -32 1 -52 -3 -61 -14 -11 -12 -12
-13 -6 0 7 12 5 13 -8 3 -8 -7 -18 -10 -21 -6 -4 3 -7 2 -7 -4 0 -6 -16 -14
-35 -17 -19 -4 -35 -11 -35 -17 0 -6 -4 -7 -10 -4 -5 3 -10 2 -10 -4 0 -6 -6
-8 -14 -5 -7 3 -20 -1 -27 -8 -8 -7 -21 -13 -29 -13 -8 1 -25 -5 -37 -13 -13
-8 -23 -11 -23 -6 0 4 -5 3 -11 -3 -6 -6 -18 -9 -27 -6 -9 4 -13 2 -9 -3 3 -6
-6 -10 -21 -10 -16 1 -26 -4 -25 -11 2 -7 -4 -10 -12 -7 -10 4 -15 0 -15 -12
0 -9 -3 -15 -6 -11 -3 3 -22 -3 -41 -14 -19 -11 -37 -18 -41 -16 -4 2 -19 -10
-34 -25 -15 -15 -24 -28 -21 -28 3 0 -7 -12 -22 -26 -15 -14 -34 -23 -41 -20
-8 3 -14 -1 -14 -9 0 -8 -5 -15 -11 -15 -5 0 -8 4 -5 8 3 5 -1 9 -8 9 -8 0
-12 -10 -10 -29 2 -15 -1 -28 -6 -28 -6 0 -10 -7 -10 -15 0 -13 -18 -20 -42
-16 -4 0 -4 -7 -1 -17 6 -14 4 -15 -9 -4 -13 10 -17 10 -22 -4 -9 -23 -7 -31
4 -14 6 9 10 10 10 3 0 -6 -7 -18 -15 -27 -8 -8 -15 -20 -15 -26 0 -6 -11 -15
-25 -20 -14 -5 -28 -16 -31 -25 -3 -8 -11 -12 -17 -8 -6 4 -7 1 -2 -7 6 -10
12 -8 24 8 12 17 19 19 31 11 13 -10 13 -10 -1 -6 -9 3 -21 -4 -28 -14 -6 -11
-19 -18 -29 -17 -9 2 -16 -3 -15 -9 2 -7 -2 -13 -8 -13 -8 0 -7 -6 2 -17 8
-10 9 -14 2 -10 -8 5 -11 -1 -9 -20 2 -16 -1 -34 -6 -40 -6 -7 -7 -13 -4 -13
4 0 0 -7 -8 -16 -9 -8 -13 -21 -9 -27 4 -7 -5 -4 -20 6 -18 12 -26 13 -25 5 2
-7 -3 -12 -9 -11 -7 2 -13 -2 -13 -8 0 -6 7 -9 14 -6 11 4 13 1 9 -10 -5 -12
-3 -14 8 -8 12 8 12 6 0 -8 -14 -18 -26 -23 -16 -8 3 5 1 13 -5 16 -6 4 -10 3
-9 -2 1 -4 0 -10 -1 -13 -8 -18 -5 -80 4 -80 8 0 8 -3 0 -8 -6 -4 -10 -25 -9
-47 1 -22 -3 -46 -9 -53 -7 -10 -6 -16 3 -22 8 -5 9 -10 3 -14 -5 -3 -10 -39
-10 -80 0 -41 -3 -79 -7 -85 -3 -6 -1 -11 6 -11 9 0 9 -3 0 -14 -9 -11 -9 -15
1 -20 11 -5 11 -7 0 -12 -10 -5 -10 -9 -1 -20 6 -8 8 -14 3 -14 -5 0 -2 -5 6
-10 10 -6 11 -10 3 -10 -9 0 -10 -7 -5 -22 4 -13 7 -41 6 -63 0 -22 3 -48 9
-59 6 -13 6 -16 -2 -11 -8 4 -10 -1 -6 -17 3 -12 6 -42 8 -64 1 -28 6 -40 15
-37 6 3 12 9 12 15 0 5 -4 7 -8 4 -5 -3 -9 1 -9 8 0 7 6 13 13 13 7 0 13 -3
12 -6 -3 -31 4 -51 19 -51 9 0 13 -3 9 -7 -3 -4 4 -13 16 -20 13 -7 17 -12 10
-13 -9 0 -10 -5 -4 -17 5 -10 8 -34 6 -53 -3 -27 -1 -32 7 -20 9 12 10 10 6
-8 -5 -19 -2 -23 12 -19 12 3 17 -3 19 -22 1 -14 7 -30 13 -36 8 -7 9 -3 5 15
-6 21 -5 22 4 7 6 -9 16 -14 22 -11 6 4 8 2 4 -4 -3 -6 -2 -13 4 -17 5 -3 10
-15 10 -26 0 -11 5 -17 10 -14 7 4 9 -3 6 -19 -3 -15 -1 -24 5 -21 5 4 9 1 9
-4 0 -6 9 -11 21 -11 24 0 49 -22 49 -44 0 -9 4 -16 9 -16 5 0 7 -9 4 -20 -3
-12 0 -20 6 -20 7 0 9 5 5 11 -3 6 5 4 18 -5 14 -9 28 -13 31 -9 4 3 7 1 7 -5
0 -7 7 -12 16 -12 8 0 12 -4 9 -10 -3 -5 -1 -10 5 -10 7 0 10 -7 7 -15 -4 -8
-1 -17 5 -21 7 -5 8 -2 3 6 -5 9 -4 11 4 6 9 -6 9 -11 -1 -23 -10 -13 -8 -14
17 -12 17 2 36 0 43 -4 6 -5 17 -5 22 -2 6 4 9 1 8 -7 -2 -7 4 -13 12 -13 8 0
22 -7 30 -15 14 -13 14 -17 0 -30 -9 -8 -10 -11 -3 -6 8 5 17 6 20 2 4 -4 1
-12 -7 -17 -13 -9 -13 -10 0 -6 8 2 23 0 34 -5 14 -8 17 -7 10 4 -6 10 -4 11
7 3 8 -5 33 -10 56 -10 22 0 39 -3 36 -7 -2 -5 6 -8 18 -8 12 0 30 -10 40 -22
22 -25 23 -30 7 -48 -11 -12 -10 -12 5 -1 12 10 17 10 17 2 0 -7 4 -10 9 -6 5
3 12 1 15 -3 3 -5 26 -6 50 -2 25 4 43 4 41 1 -2 -4 104 -6 235 -6 131 0 238
2 238 5 -1 20 4 21 18 4 8 -10 13 -13 9 -6 -6 11 7 17 28 13 5 -1 6 3 3 8 -4
5 -1 13 5 16 5 4 8 14 5 22 -3 8 -1 11 4 8 6 -3 10 -2 10 3 0 5 6 9 13 9 6 1
26 5 42 11 17 5 42 8 58 8 15 -1 27 2 27 7 0 5 7 4 15 -3 15 -12 21 -4 16 23
-1 5 4 5 10 1 9 -5 10 -2 6 10 -6 14 -3 17 9 12 15 -6 15 -4 3 11 -9 11 -10
14 -1 9 6 -4 12 -2 12 3 0 6 7 11 15 11 8 0 15 4 15 8 0 5 18 8 39 8 22 -1 37
2 35 6 -3 4 0 16 6 25 9 14 10 14 7 2 -3 -9 1 -16 8 -16 14 0 15 29 0 39 -6 4
-2 8 8 8 10 0 16 4 12 9 -3 6 4 8 15 6 11 -2 18 0 15 6 -6 9 8 13 34 10 7 -2
10 2 6 8 -3 6 -1 11 5 11 6 0 9 4 6 9 -3 5 1 11 9 15 8 3 15 12 15 20 0 10 6
13 18 9 9 -3 14 -3 10 1 -4 5 8 21 25 38 18 16 24 26 15 22 -11 -3 -18 -1 -18
5 0 6 7 11 17 11 9 0 13 3 10 7 -4 3 -2 12 4 20 14 16 43 18 33 1 -4 -7 -3 -8
5 -4 6 4 9 11 6 16 -3 5 3 13 12 19 14 7 15 13 6 22 -12 12 0 45 21 60 5 4 6
15 2 25 -6 15 -5 16 5 7 8 -8 18 -9 31 -2 10 5 24 7 30 3 7 -5 8 -3 4 5 -5 7
-15 10 -23 7 -8 -3 -12 -2 -8 3 3 5 -1 12 -7 15 -7 3 -1 3 13 0 16 -3 30 -1
34 7 5 8 4 10 -3 5 -7 -4 -12 -2 -12 3 0 6 4 11 8 11 5 0 10 26 11 57 1 32 8
64 14 72 9 12 9 13 0 7 -9 -5 -11 -2 -7 8 3 9 11 13 17 9 6 -3 7 -1 3 6 -4 6
-2 18 4 26 10 12 10 18 1 29 -10 12 -8 13 8 9 13 -3 21 -1 21 6 0 7 -5 9 -12
5 -7 -4 -5 1 4 12 14 16 15 23 5 34 -10 12 -9 12 4 2 9 -6 20 -8 25 -4 5 4 1
-2 -8 -13 -16 -20 -16 -21 5 -34 18 -11 20 -11 10 0 -14 14 -18 33 -5 26 4 -3
8 12 8 34 1 23 -3 36 -9 32 -6 -4 -7 -1 -1 8 13 21 14 39 1 39 -6 0 -2 7 9 16
10 8 14 13 8 10 -7 -3 -15 1 -18 10 -3 8 -2 12 4 9 6 -3 10 3 10 14 0 12 -6
21 -12 21 -10 0 -10 2 0 8 10 7 10 15 2 37 -9 25 -9 26 5 15 20 -16 19 -6 -1
14 -8 9 -11 16 -5 16 6 0 11 7 11 16 0 9 -5 12 -12 8 -9 -5 -9 -2 1 9 11 14
11 17 0 17 -11 0 -11 2 1 10 12 8 12 10 1 10 -11 0 -11 3 -1 15 9 11 9 15 1
15 -7 0 -9 5 -4 13 13 21 12 35 -4 41 -8 3 -11 10 -8 16 3 5 1 18 -4 27 -6 10
-11 12 -11 5 0 -9 -4 -10 -18 -1 -18 11 -22 22 -23 62 0 9 -4 15 -9 12 -4 -3
-10 13 -12 35 -2 22 1 40 6 40 5 0 1 7 -10 16 -10 8 -13 13 -6 9 6 -3 12 -1
12 4 0 6 -5 11 -11 11 -6 0 -8 7 -5 16 4 9 2 22 -3 28 -5 6 -11 16 -13 21 -1
6 -7 9 -11 7 -5 -1 -21 5 -36 14 -23 13 -27 22 -24 51 3 40 -19 68 -44 59 -14
-6 -14 -4 -2 11 13 15 12 16 -9 11 -20 -6 -22 -4 -10 10 11 13 11 15 -3 10
-13 -5 -16 -2 -11 14 3 14 1 19 -6 14 -8 -5 -12 0 -12 13 0 12 -5 21 -11 21
-5 0 -7 -5 -3 -12 4 -7 3 -8 -4 -4 -6 4 -8 14 -5 23 5 12 3 14 -7 8 -10 -6
-12 -4 -7 8 4 12 2 14 -10 10 -13 -5 -15 -1 -11 20 4 22 3 25 -8 16 -11 -9
-14 -8 -14 0 0 7 -4 10 -9 7 -5 -3 -11 1 -15 9 -3 8 -15 15 -26 15 -12 0 -19
4 -16 8 3 5 -6 15 -19 22 -13 7 -27 20 -30 28 -5 12 -1 12 15 -3 11 -10 20
-13 20 -7 0 7 -5 12 -11 12 -5 0 -8 4 -5 8 5 8 -8 12 -46 13 -10 0 -18 5 -18
10 0 6 -4 8 -10 4 -13 -8 -50 17 -50 35 0 13 -1 13 -10 0 -8 -12 -10 -11 -10
7 0 12 5 23 11 25 6 2 -2 9 -17 16 -25 11 -26 10 -12 -1 16 -12 14 -14 -13
-14 -16 0 -25 3 -19 7 15 9 -6 18 -37 15 -13 -1 -23 3 -23 8 0 5 -8 3 -17 -4
-9 -8 -14 -9 -10 -3 4 7 0 15 -9 18 -8 3 -12 2 -9 -4 3 -6 -1 -7 -9 -4 -9 3
-13 11 -9 16 4 7 -4 9 -20 6 -23 -4 -25 -3 -17 13 14 25 12 35 -2 21 -7 -7
-17 -12 -22 -12 -6 0 -5 5 2 12 7 7 12 17 12 23 0 5 -5 3 -10 -5 -8 -12 -10
-12 -10 -1 0 8 -3 11 -6 8 -4 -3 -15 -2 -25 4 -14 7 -19 6 -19 -3 -1 -8 -7 -5
-15 6 -8 11 -15 15 -15 10 0 -5 -42 -10 -100 -10 -62 0 -97 3 -93 9 4 6 1 7
-7 2 -19 -12 -81 -15 -74 -4 3 5 3 9 0 9 -3 0 -7 -4 -10 -9z m1104 -661 c0 -5
-2 -10 -4 -10 -3 0 -8 5 -11 10 -3 6 -1 10 4 10 6 0 11 -4 11 -10z m-2145
-139 c3 -5 2 -12 -3 -15 -5 -3 -9 1 -9 9 0 17 3 19 12 6z m2228 -99 c4 9 6 9
6 1 2 -23 -18 -23 -29 -1 -10 21 -10 22 3 5 11 -14 16 -15 20 -5z m18 -49 c12
-16 12 -17 -2 -6 -9 7 -20 9 -24 5 -5 -4 -5 -1 -1 6 9 16 11 15 27 -5z m-811
-1298 c0 -2 -10 -9 -22 -15 -22 -11 -22 -10 -4 4 21 17 26 19 26 11z"/>
<path d="M4295 9519 c-11 -17 1 -21 15 -4 8 9 8 15 2 15 -6 0 -14 -5 -17 -11z"/>
<path d="M6115 8329 c-4 -6 -5 -12 -2 -15 2 -3 7 2 10 11 7 17 1 20 -8 4z"/>
<path d="M3986 7983 c-6 -14 -5 -15 5 -6 7 7 10 15 7 18 -3 3 -9 -2 -12 -12z"/>
<path d="M1185 6861 c-6 -5 -37 -12 -70 -15 -33 -3 -73 -8 -90 -11 -16 -4 -38
-7 -47 -8 -13 -1 -14 -5 -7 -19 7 -13 6 -18 -2 -16 -6 2 -12 -9 -13 -24 -1
-16 3 -28 9 -28 6 0 6 -3 -1 -8 -6 -4 -11 -24 -10 -45 0 -20 -3 -39 -9 -41 -5
-3 -3 -5 5 -5 13 -1 13 -2 0 -12 -12 -8 -12 -12 -2 -16 10 -4 10 -8 1 -19 -9
-11 -8 -14 2 -14 11 0 11 -2 -1 -10 -13 -9 -13 -11 0 -20 11 -7 11 -10 2 -10
-10 0 -10 -5 -2 -20 7 -13 7 -20 1 -20 -7 0 -7 -9 -1 -25 7 -18 6 -25 -3 -25
-8 0 -8 -3 2 -9 11 -7 11 -9 0 -14 -12 -4 -11 -7 1 -16 8 -6 10 -11 4 -11 -8
0 -9 -11 -4 -35 5 -24 4 -35 -4 -35 -6 0 -4 -5 4 -10 8 -5 10 -10 4 -10 -12 0
-11 -41 1 -59 3 -6 1 -11 -6 -11 -8 0 -8 -4 1 -15 7 -8 8 -15 3 -15 -9 0 -8
-83 2 -107 2 -7 -1 -13 -8 -13 -8 0 -6 -4 3 -10 12 -8 12 -10 1 -10 -11 0 -11
-3 0 -17 10 -12 11 -15 1 -9 -12 7 -11 -15 4 -61 2 -7 -2 -13 -8 -13 -6 0 -5
-6 3 -17 10 -11 10 -14 2 -9 -7 4 -13 2 -13 -3 0 -6 4 -11 9 -11 12 0 9 -33
-4 -42 -5 -4 -1 -8 10 -8 17 0 17 -2 5 -10 -8 -5 -10 -10 -4 -10 7 0 15 -11
18 -25 4 -14 11 -25 16 -25 5 0 7 8 4 18 -5 16 -5 16 6 -1 6 -9 15 -15 20 -12
5 3 11 1 15 -5 4 -6 11 -8 16 -5 5 3 6 -1 3 -9 -5 -13 -1 -14 24 -6 24 6 30 5
26 -5 -3 -7 0 -16 7 -21 8 -4 10 -3 5 4 -4 7 -2 12 3 12 6 0 11 -7 11 -15 0
-8 3 -15 8 -16 4 0 14 -2 23 -4 9 -1 16 4 16 11 0 17 -14 19 -19 3 -2 -6 -9 2
-16 17 -11 25 -10 26 1 12 10 -12 17 -14 24 -7 8 8 13 5 18 -10 3 -12 11 -19
16 -15 6 4 6 11 -1 19 -9 10 -7 13 7 10 10 -2 19 -4 21 -5 1 -2 7 -3 12 -4 6
0 15 -8 20 -16 8 -12 10 -11 10 6 0 19 6 21 43 21 32 -1 41 2 39 13 -3 12 -1
13 10 2 18 -18 -6 -32 -48 -27 -31 3 -40 -12 -20 -32 4 -4 6 -3 4 4 -2 6 2 11
7 11 6 0 9 -4 8 -9 -2 -5 2 -9 7 -9 6 0 10 5 10 10 0 6 5 10 11 10 5 0 7 -4 4
-10 -3 -6 1 -7 10 -3 12 4 13 8 5 13 -7 4 0 9 19 12 35 5 39 1 15 -16 -13 -10
-13 -12 5 -12 11 0 19 3 18 6 -4 17 16 49 26 43 7 -4 22 -7 34 -8 12 0 24 -3
27 -6 4 -3 -12 -5 -34 -3 -29 2 -40 -1 -40 -11 0 -8 4 -17 10 -20 6 -4 7 1 4
12 -5 16 -3 15 12 -2 14 -17 16 -17 11 -2 -8 21 11 23 20 1 5 -13 7 -13 14 -2
11 18 32 17 42 -2 5 -11 6 -9 4 6 -4 20 2 22 66 15 5 -1 6 -5 3 -10 -3 -5 0
-11 8 -14 9 -4 12 0 9 13 -3 10 0 27 7 37 10 16 10 16 5 -4 -3 -12 -1 -24 5
-28 6 -3 7 -12 3 -18 -3 -7 3 -4 14 6 21 18 21 18 26 0 4 -17 5 -17 6 0 1 11
6 15 13 11 6 -4 8 -3 4 4 -3 6 -15 9 -26 7 -11 -2 -20 1 -20 6 0 6 6 9 13 6 6
-2 17 3 24 12 10 14 11 14 10 -3 -1 -11 5 -20 16 -21 9 -2 17 1 17 6 0 5 5 9
10 9 6 0 10 -6 10 -14 0 -9 -7 -13 -20 -11 -11 2 -20 -1 -20 -7 0 -5 7 -7 16
-4 12 4 15 2 10 -9 -9 -24 2 -17 16 10 13 23 15 24 41 10 15 -7 27 -11 27 -7
0 4 5 0 10 -8 8 -12 10 -11 10 7 0 17 4 20 22 15 14 -3 19 -2 14 6 -4 7 0 15
10 19 10 4 20 0 26 -11 7 -12 13 -14 28 -6 10 5 22 10 27 10 4 -1 -3 -7 -17
-14 -14 -8 -28 -12 -32 -10 -5 3 -8 0 -8 -5 0 -6 3 -11 8 -12 4 0 15 -2 24 -4
11 -2 15 2 11 11 -3 9 2 14 17 14 11 0 19 4 16 9 -3 5 6 9 19 9 14 0 25 -5 25
-10 0 -5 -3 -7 -8 -4 -4 2 -18 -1 -31 -8 -15 -9 -20 -16 -12 -20 6 -4 11 -2
11 3 0 6 5 11 11 11 5 0 7 -6 3 -12 -4 -7 4 -3 18 10 13 12 28 19 33 15 4 -5
5 1 2 12 -7 19 -6 19 7 2 10 -14 15 -15 19 -5 4 11 6 11 6 0 1 -7 5 -11 10 -7
5 3 17 -5 26 -17 16 -22 17 -22 11 -2 -4 14 0 26 11 35 9 8 14 9 10 3 -4 -7 0
-17 7 -23 10 -8 16 -9 21 -1 3 5 2 10 -3 10 -5 0 -9 8 -9 17 0 14 3 13 15 -5
11 -17 18 -19 33 -11 10 5 19 7 19 4 0 -3 10 0 23 6 12 6 19 8 15 4 -4 -5 -2
-15 5 -23 9 -13 9 -14 0 -8 -7 4 -13 3 -13 -2 0 -6 7 -13 16 -16 10 -4 13 -2
8 6 -5 8 -2 9 12 4 30 -13 47 -12 50 2 1 7 0 8 -3 2 -2 -5 -9 -10 -14 -10 -6
0 -7 4 -4 10 3 5 0 7 -8 4 -18 -6 -43 21 -27 31 6 4 9 1 8 -6 -2 -6 3 -14 11
-17 10 -3 11 0 5 9 -6 11 -3 10 11 -1 21 -17 25 -17 36 1 4 8 11 10 16 6 4 -5
3 -11 -2 -15 -11 -7 -18 -32 -10 -32 2 0 11 12 19 28 8 15 15 21 16 14 0 -6 6
-11 13 -10 6 2 11 -4 11 -13 -1 -9 5 -16 12 -16 9 0 10 7 3 24 -8 22 -7 23 13
12 18 -10 20 -9 14 7 -6 18 -5 18 7 2 8 -10 17 -15 20 -11 4 3 7 1 7 -5 0 -6
-4 -14 -10 -17 -5 -3 -10 -2 -10 3 0 5 -7 9 -15 9 -9 0 -12 -4 -7 -9 11 -11
54 -19 47 -9 -6 10 46 8 63 -3 6 -3 14 -2 17 4 5 8 11 8 19 1 9 -8 13 -7 13 2
0 9 -15 13 -46 13 -25 -1 -47 4 -48 9 -4 13 19 14 36 1 12 -9 13 -7 8 9 -6 17
-5 18 6 5 20 -25 39 -24 32 2 -3 13 4 6 15 -15 19 -35 40 -42 40 -14 0 8 -3 8
-9 -1 -6 -11 -10 -10 -15 4 -3 9 -4 19 -1 22 3 3 5 1 5 -5 0 -11 45 -11 56 0
14 14 24 7 20 -16 -3 -19 1 -22 30 -23 19 0 34 4 34 10 0 6 5 5 12 -2 7 -7 16
-12 22 -12 5 0 1 7 -10 15 -12 9 -14 14 -6 15 7 0 10 5 7 10 -3 6 -1 10 5 10
7 0 10 -6 7 -14 -9 -22 41 -41 64 -24 11 8 10 9 -3 4 -12 -3 -18 0 -18 9 0 11
6 12 23 6 12 -5 21 -15 19 -22 -2 -9 0 -10 11 -1 9 7 17 8 23 2 6 -6 10 -3 10
9 0 16 -4 18 -19 9 -15 -8 -18 -7 -12 3 5 7 4 10 -1 6 -6 -3 -15 -2 -22 2 -7
4 6 7 28 7 22 0 39 -5 38 -11 -2 -5 2 -12 7 -13 6 -2 15 -8 21 -13 14 -12 46
0 41 15 -2 6 -13 12 -25 12 -12 1 -20 -2 -17 -6 2 -4 -2 -7 -10 -7 -10 0 -11
4 -5 11 11 15 60 19 60 6 0 -6 5 -10 11 -10 5 0 7 5 4 10 -3 6 -1 10 4 10 14
0 14 -17 0 -26 -8 -5 -6 -10 6 -16 11 -7 21 -6 28 2 9 8 8 10 -6 4 -13 -5 -16
-2 -11 9 6 17 23 14 60 -10 17 -11 23 -10 40 2 13 11 14 14 4 13 -8 -2 -18 -7
-22 -13 -5 -6 -8 -5 -8 3 0 7 -4 11 -9 8 -5 -3 -14 1 -21 9 -9 10 -9 15 -1 15
6 0 11 -5 11 -11 0 -8 4 -8 14 0 10 9 16 9 21 1 5 -8 11 -8 19 -1 9 7 17 7 26
-2 10 -10 12 -8 6 8 -5 17 -4 18 7 5 14 -17 37 -24 37 -12 0 4 -5 13 -10 18
-7 7 -6 11 3 11 8 0 13 -9 13 -21 -1 -12 -8 -20 -15 -18 -7 1 -10 -2 -6 -8 3
-5 1 -10 -4 -10 -6 0 -11 4 -11 8 0 5 -7 9 -15 9 -20 0 -19 -4 6 -17 16 -9 24
-8 39 5 11 10 20 12 24 7 3 -6 1 -12 -5 -14 -7 -2 9 -4 35 -4 26 -1 42 2 35 6
-7 5 -8 10 -1 14 6 3 13 2 17 -4 8 -13 25 -13 25 1 0 5 -4 8 -9 4 -5 -3 -13
-1 -16 5 -5 8 -11 8 -19 1 -7 -6 -17 -7 -21 -3 -5 4 -5 1 -1 -5 4 -7 2 -13 -3
-13 -6 0 -11 5 -11 10 0 6 -5 9 -11 8 -6 -2 -13 3 -14 10 -2 7 -1 8 2 2 3 -8
9 -8 18 0 10 8 15 8 20 0 5 -8 11 -7 22 1 11 10 16 10 23 0 5 -9 10 -10 14 -2
9 14 26 14 26 0 0 -5 -5 -7 -12 -3 -7 4 -8 3 -4 -4 4 -6 13 -9 21 -6 8 4 13
10 10 14 -8 13 20 6 49 -13 15 -10 24 -22 21 -27 -4 -6 -1 -10 5 -10 7 0 10 6
7 13 -3 7 2 22 10 32 15 19 15 19 8 -2 -6 -23 10 -33 17 -11 3 9 13 8 39 -2
47 -20 59 -21 52 -3 -5 12 -7 12 -14 1 -7 -10 -9 -11 -9 0 0 7 -4 11 -9 8 -5
-3 -15 2 -22 12 -13 16 -13 16 5 2 18 -14 19 -13 13 5 -6 17 -5 18 6 5 17 -21
41 -25 33 -5 -3 10 -2 14 5 10 6 -4 8 -13 5 -20 -3 -8 3 -19 12 -27 15 -12 16
-11 3 5 -9 12 -10 17 -2 17 7 0 10 4 7 9 -8 12 13 8 41 -7 16 -9 24 -9 29 0 4
6 3 8 -4 4 -6 -3 -13 -3 -16 2 -2 4 4 9 15 9 15 1 19 -3 14 -17 -5 -15 -1 -18
15 -17 19 1 25 10 20 32 -1 6 2 7 5 3 4 -4 16 -3 26 3 11 5 19 6 19 1 0 -6 -9
-12 -20 -15 -12 -3 -20 -13 -19 -24 1 -16 2 -17 6 0 2 9 9 15 14 11 5 -3 6
-10 3 -16 -4 -7 -2 -8 5 -4 6 4 9 12 6 17 -3 5 1 6 9 3 9 -3 14 -9 12 -13 -3
-4 8 -7 24 -6 23 0 27 3 19 17 -9 17 2 33 15 21 12 -12 36 -12 36 0 0 8 3 8 8
2 8 -12 75 -17 67 -5 -3 4 3 14 13 21 15 13 16 12 3 -3 -11 -15 -11 -19 3 -24
9 -3 13 -11 10 -16 -4 -6 -10 -5 -16 3 -8 12 -9 12 -6 0 2 -8 17 -16 34 -17
16 -1 21 0 11 3 -9 2 -15 9 -11 14 3 5 10 6 16 3 7 -4 8 -2 4 5 -4 6 -11 9
-16 6 -5 -3 -12 0 -16 6 -4 8 -3 9 4 5 7 -4 12 -1 12 6 0 9 3 9 10 -2 11 -17
32 -20 42 -5 5 6 8 5 8 -3 0 -9 5 -10 19 -2 27 14 32 13 29 -7 -2 -10 2 -18 7
-18 6 0 15 -4 22 -8 6 -4 14 -3 18 3 4 6 12 7 24 1 10 -6 23 -6 31 -1 8 5 22
4 33 -2 10 -5 21 -7 25 -4 3 3 0 6 -7 6 -7 0 -10 4 -7 8 7 12 -48 9 -56 -3 -5
-6 -8 -6 -8 1 0 6 -17 10 -41 9 -37 -2 -39 -1 -24 14 10 10 18 12 23 6 4 -6
16 -11 27 -11 11 0 23 5 27 11 5 6 8 5 8 -4 0 -11 3 -11 17 0 13 11 15 11 9 1
-5 -9 -3 -13 5 -11 30 4 49 -2 47 -13 -4 -15 69 -18 82 -3 6 7 1 11 -15 11
-14 0 -25 -4 -25 -8 0 -4 -5 -8 -11 -8 -5 0 -8 4 -4 9 3 5 0 13 -6 17 -8 5 -9
3 -4 -7 7 -11 5 -11 -11 1 -10 8 -21 15 -22 16 -2 2 11 1 30 -1 18 -2 33 -4
33 -5 0 -1 8 -3 18 -5 9 -2 17 2 17 8 0 8 3 7 9 -1 11 -17 21 -17 32 0 7 10 9
10 9 -2 0 -13 1 -13 10 0 5 8 10 10 10 5 0 -10 22 -15 68 -15 9 0 28 0 41 0
13 0 31 6 39 12 9 7 13 8 9 2 -6 -10 27 -16 73 -14 8 0 23 0 33 1 9 0 15 4 12
9 -3 5 -1 12 5 15 6 4 10 3 9 -2 -1 -4 3 -19 9 -33 10 -24 11 -24 11 -3 1 22
21 44 21 22 0 -8 4 -8 15 1 17 14 31 8 20 -9 -3 -6 -11 -9 -16 -6 -5 4 -9 1
-9 -4 0 -15 13 -14 29 2 11 10 13 9 8 -5 -4 -10 -2 -18 4 -18 7 0 9 11 5 28
-4 15 -3 22 1 17 4 -6 35 -11 68 -10 46 0 59 3 57 14 -3 12 0 12 12 1 9 -7 16
-9 16 -5 0 4 6 2 14 -4 10 -8 16 -9 21 -1 3 5 1 10 -6 10 -7 0 -9 3 -6 7 4 3
16 -2 27 -12 11 -10 20 -14 20 -10 0 4 9 0 21 -11 24 -21 84 -27 98 -10 7 9 3
12 -14 12 -13 0 -21 -4 -19 -8 3 -4 -2 -8 -12 -8 -13 0 -14 3 -5 13 8 10 7 14
-4 14 -8 0 -11 -5 -8 -11 4 -6 0 -5 -9 1 -8 7 -18 10 -21 6 -4 -3 -7 -1 -7 6
0 7 10 10 25 7 15 -3 25 0 25 7 0 7 5 4 11 -6 6 -9 15 -15 20 -12 5 4 6 12 2
18 -3 7 3 3 15 -7 20 -17 26 -15 23 6 0 4 6 5 14 2 8 -4 15 -10 15 -14 0 -12
30 -40 43 -40 6 0 3 6 -6 13 -14 11 -14 14 -2 31 8 11 15 14 15 7 0 -7 5 -9
10 -6 6 3 10 0 10 -7 0 -11 2 -10 9 0 7 11 10 10 15 -3 3 -9 3 -22 -1 -27 -4
-7 -1 -8 6 -4 7 5 10 14 7 22 -6 16 10 29 19 14 3 -5 13 -10 21 -10 8 0 13 4
10 8 -3 5 1 9 9 9 8 0 12 -4 9 -9 -3 -4 5 -6 18 -4 13 2 33 0 45 -5 18 -7 21
-5 17 9 -2 9 1 7 7 -5 13 -24 31 -31 26 -11 -1 7 4 12 11 13 7 0 17 7 22 15 7
11 10 11 10 2 0 -7 4 -10 10 -7 5 3 10 1 10 -5 0 -7 -6 -10 -13 -7 -7 3 -13
-3 -13 -14 0 -16 2 -17 16 -4 13 11 19 12 28 3 7 -7 12 -8 12 -2 0 5 5 2 10
-6 8 -13 10 -12 10 3 0 9 5 17 11 17 6 0 9 -7 5 -15 -3 -8 -1 -15 4 -15 6 0
10 9 10 20 0 17 3 18 28 10 24 -9 25 -9 9 4 -10 8 -14 17 -9 20 5 3 15 -6 22
-19 7 -14 17 -25 22 -25 10 0 6 23 -5 31 -4 3 -2 11 6 17 12 10 14 8 12 -13
-2 -14 1 -25 6 -25 6 0 7 -6 3 -12 -5 -10 -4 -10 6 -1 7 6 19 9 26 6 8 -3 14
0 14 5 0 6 -8 9 -18 7 -11 -2 -19 3 -19 10 0 8 5 11 11 7 19 -11 36 -11 36 1
0 8 3 8 8 2 7 -10 27 -17 50 -18 6 0 12 -5 12 -10 0 -5 -8 -6 -17 -2 -31 12
-53 14 -53 5 0 -5 8 -8 18 -8 9 0 25 -3 34 -6 11 -5 20 -1 28 14 7 13 8 20 3
17 -5 -3 -15 -2 -23 3 -10 6 -3 8 22 6 20 -2 42 -7 49 -11 9 -6 11 -3 6 11 -6
16 -5 17 6 4 14 -18 37 -24 37 -10 0 5 -8 14 -17 19 -10 6 -13 11 -7 11 19 0
34 -25 29 -49 -2 -12 0 -19 6 -16 5 4 7 11 4 16 -9 14 5 11 21 -6 9 -8 23 -14
32 -14 16 1 16 2 0 6 -25 7 -29 29 -7 49 18 16 19 16 13 1 -3 -9 -11 -17 -18
-17 -6 0 -4 -5 4 -10 21 -13 30 -12 27 2 -1 8 11 13 30 14 25 2 31 -1 30 -17
-1 -10 -5 -19 -10 -19 -5 0 -7 6 -4 13 3 8 -5 13 -22 14 -14 1 -19 -1 -11 -4
8 -4 21 -13 28 -22 11 -15 13 -14 26 2 17 22 30 22 21 0 -4 -13 -3 -15 5 -7
11 11 3 47 -9 39 -4 -2 -8 3 -8 12 0 13 4 12 18 -6 12 -14 19 -17 22 -9 4 10
6 9 6 -1 1 -10 4 -11 15 -2 10 8 16 9 21 1 3 -6 11 -8 16 -5 5 4 9 2 9 -4 0
-5 -16 -8 -35 -7 -19 2 -35 0 -35 -6 0 -5 8 -8 18 -6 10 2 16 -2 14 -11 -3
-12 0 -12 12 -1 13 10 19 10 34 -1 16 -13 16 -13 2 5 -14 18 -13 19 3 13 16
-6 16 -5 1 21 -14 22 -11 20 14 -8 17 -19 34 -31 38 -27 4 4 2 7 -3 7 -6 0
-10 8 -9 18 2 9 7 17 12 17 5 0 15 4 23 9 9 6 12 5 7 -2 -3 -6 -2 -13 4 -17 5
-3 10 0 10 7 0 8 3 9 8 2 11 -15 55 -12 72 6 8 9 12 11 7 4 -4 -6 -5 -19 -1
-28 3 -9 1 -16 -6 -16 -6 0 -9 4 -6 8 3 5 -1 9 -9 9 -13 0 -12 -4 2 -19 19
-21 26 -17 28 15 1 12 6 20 11 19 5 -2 8 -8 7 -13 -3 -10 45 7 67 24 12 10 13
10 4 -3 -10 -12 -5 -19 25 -38 20 -13 31 -18 24 -12 -16 17 -5 40 14 33 10 -4
14 -2 10 4 -3 5 0 10 8 10 8 0 11 -5 8 -10 -4 -6 0 -8 9 -4 9 3 23 -2 32 -11
8 -10 28 -18 43 -19 22 -1 24 0 9 6 -16 6 -13 10 23 28 23 11 37 15 31 8 -8
-9 -6 -14 6 -19 23 -9 31 -7 14 4 -11 7 -11 10 -2 10 7 0 17 -10 23 -22 9 -21
9 -21 5 5 -2 20 0 25 7 18 15 -15 30 -14 21 2 -4 6 -4 9 1 5 4 -4 15 -2 24 5
14 10 14 10 3 -4 -11 -14 -9 -16 13 -16 13 0 23 3 20 6 -2 4 1 13 7 21 8 13 9
13 5 0 -7 -24 17 -50 44 -49 13 1 31 0 39 -3 8 -3 12 -3 7 -1 -13 8 3 23 24
23 10 0 18 5 16 11 -1 6 5 14 13 16 9 3 11 1 5 -4 -33 -27 6 -60 46 -39 20 10
29 10 53 -1 33 -17 57 -4 37 21 -10 12 -7 14 18 12 17 -1 33 3 35 11 3 7 11
13 18 12 10 0 10 -2 1 -6 -21 -8 -15 -22 7 -18 12 2 18 0 14 -6 -3 -6 0 -10 7
-8 27 3 40 -1 33 -12 -4 -8 -9 -7 -16 2 -8 11 -9 11 -5 -1 4 -17 65 -22 84 -7
14 10 8 27 -10 27 -8 0 -8 -3 2 -9 8 -5 9 -11 3 -15 -5 -3 -12 1 -16 9 -3 8
-1 17 5 20 5 4 7 12 4 18 -3 7 2 2 11 -10 13 -18 20 -20 34 -13 13 7 21 7 25
0 4 -6 12 -7 18 -3 16 10 47 14 47 7 0 -3 -5 -14 -11 -25 -10 -19 -9 -19 10
-9 12 6 21 13 21 16 0 3 -4 2 -10 -1 -6 -3 -7 1 -4 10 6 14 8 14 21 -2 8 -10
12 -13 9 -7 -4 8 6 10 32 7 36 -5 36 -4 17 12 -20 16 -20 16 1 6 11 -5 34 -8
51 -5 17 3 34 0 38 -6 4 -6 -3 -9 -16 -7 -13 1 -23 -4 -24 -14 -2 -9 4 -16 11
-16 8 0 14 4 14 9 0 4 5 8 11 8 5 0 7 -6 3 -12 -4 -7 2 -5 13 5 14 12 23 15
28 8 8 -14 25 -14 25 0 0 5 -5 7 -12 3 -7 -4 -8 -3 -4 4 4 7 -1 9 -15 7 -12
-2 -19 -2 -16 2 4 3 -1 12 -11 20 -15 12 -14 13 8 1 14 -7 31 -11 38 -10 6 2
12 -1 12 -5 0 -5 14 -9 31 -9 22 -1 28 1 20 9 -6 6 -11 16 -11 22 0 5 5 2 11
-8 7 -12 17 -16 30 -12 11 4 19 2 19 -4 0 -6 4 -11 10 -11 5 0 7 8 3 18 -4 11
0 10 11 -6 10 -12 14 -27 10 -34 -4 -7 -3 -8 5 -4 6 4 9 18 7 32 -5 26 8 33
18 9 4 -12 10 -14 25 -5 28 15 32 13 27 -13 -3 -16 1 -24 10 -24 8 0 14 4 14
9 0 4 5 8 11 8 5 0 7 -6 3 -12 -4 -7 1 -5 11 4 16 15 20 15 42 1 13 -9 26 -13
30 -9 3 3 1 6 -6 6 -7 0 -9 4 -6 10 3 5 0 7 -8 4 -8 -3 -18 0 -22 5 -3 6 -11
8 -17 5 -7 -4 -8 -2 -4 4 4 7 2 12 -3 12 -6 0 -11 5 -11 12 0 6 7 4 18 -5 10
-10 22 -14 27 -10 4 5 5 2 0 -6 -5 -9 -3 -12 6 -9 8 3 25 -4 38 -16 13 -11 21
-15 17 -8 -4 6 -3 12 3 12 5 0 11 -5 13 -11 2 -7 9 -5 17 5 12 14 12 16 0 13
-8 -2 -10 -2 -6 1 4 2 3 10 -4 18 -7 8 -7 14 -1 14 5 0 13 -7 16 -16 3 -8 10
-12 16 -9 20 12 53 14 71 4 11 -5 25 -6 32 -2 6 4 19 8 27 8 8 0 20 4 27 8 8
5 11 -1 8 -20 -2 -16 -2 -22 1 -15 3 6 10 10 14 7 5 -3 7 5 5 17 -4 22 -3 22
10 5 7 -11 11 -25 8 -33 -3 -8 0 -14 6 -14 6 0 10 6 9 13 -2 6 3 11 10 9 9 -2
12 4 7 17 -3 11 0 23 6 27 8 5 9 3 4 -5 -4 -8 1 -21 14 -32 12 -11 21 -15 21
-9 0 5 9 10 21 10 13 0 18 -4 13 -12 -4 -6 -3 -8 4 -4 5 3 13 0 15 -6 3 -8 6
-6 6 5 1 20 12 22 30 5 8 -7 6 -1 -3 13 -14 22 -14 26 -1 26 8 0 12 -3 10 -6
-2 -4 3 -15 11 -26 8 -10 14 -13 14 -7 0 7 7 12 16 12 8 0 12 5 9 10 -5 8 -11
7 -21 -1 -8 -7 -14 -7 -14 -1 0 12 26 23 34 15 3 -4 18 -8 32 -9 23 -2 24 -1
12 14 -12 15 -11 16 5 3 9 -7 17 -10 17 -6 0 5 9 0 19 -9 13 -12 21 -14 26 -6
3 5 11 8 16 5 5 -4 12 1 16 11 6 15 7 14 15 -6 7 -19 11 -20 24 -9 19 16 65
21 79 9 8 -7 12 -5 12 5 0 8 -4 12 -8 9 -4 -2 -10 0 -14 5 -6 11 27 7 46 -5 7
-4 7 1 -1 16 -6 12 -9 24 -6 28 3 3 6 0 6 -7 0 -8 6 -11 16 -7 10 4 13 2 8 -7
-5 -8 -2 -7 9 2 14 11 15 16 5 29 -8 10 -8 13 -2 9 7 -4 18 1 25 10 8 9 9 14
3 10 -7 -4 -11 4 -10 22 1 16 4 27 9 24 4 -2 7 0 7 6 0 5 -6 12 -12 14 -10 4
-10 6 0 6 10 1 10 6 1 23 -8 15 -9 23 -1 26 7 2 7 13 2 33 -5 16 -6 29 -2 29
4 0 7 15 7 34 0 19 -3 32 -7 29 -5 -2 -8 1 -8 6 0 6 5 11 10 11 7 0 7 6 0 20
-8 15 -8 20 1 20 8 0 8 4 -1 15 -10 12 -10 15 1 15 11 0 11 2 -1 10 -13 9 -13
10 0 10 13 0 13 1 0 10 -11 7 -11 10 -2 10 9 0 10 5 2 19 -7 14 -6 21 3 24 9
4 9 6 -1 6 -7 1 -11 5 -8 9 6 10 8 74 4 174 -2 42 -1 75 2 73 12 -7 1 187 -12
202 -7 10 -8 14 -1 10 10 -6 11 11 3 33 -1 3 -2 8 -2 11 1 8 -31 5 -46 -4 -7
-5 -10 -3 -7 5 4 9 -5 13 -27 12 -18 0 -41 4 -51 9 -10 4 -38 9 -62 10 -26 1
-42 5 -39 12 3 5 -2 1 -10 -9 -11 -14 -16 -15 -16 -6 0 11 -3 11 -12 2 -7 -7
-17 -8 -27 -3 -25 14 -33 14 -42 -1 -5 -7 -9 -8 -9 -3 0 9 -18 10 -110 4 -19
-1 -44 2 -54 6 -16 7 -18 5 -13 -11 7 -18 6 -18 -6 -2 -11 13 -16 15 -25 6 -7
-7 -12 -8 -12 -3 0 12 -231 12 -248 1 -7 -4 -12 -2 -12 3 0 13 -22 10 -32 -4
-5 -7 -8 -7 -8 0 0 6 -14 10 -31 11 -23 1 -29 -2 -25 -15 5 -14 5 -14 -6 -1
-15 17 -40 20 -50 5 -5 -7 -8 -7 -8 0 0 11 -72 11 -89 0 -6 -3 -11 -2 -11 3 0
13 -33 10 -42 -3 -5 -6 -8 -5 -8 4 0 10 -3 11 -13 3 -8 -7 -18 -7 -27 -2 -9 6
-17 5 -22 -3 -6 -9 -8 -9 -8 1 0 9 -5 10 -19 2 -14 -7 -21 -6 -25 3 -5 9 -7 9
-12 -1 -3 -6 -10 -9 -16 -6 -15 10 -109 10 -115 1 -2 -4 -9 -4 -16 0 -14 8
-132 8 -146 -1 -6 -4 -11 -3 -11 2 0 13 -33 10 -42 -3 -5 -6 -8 -5 -8 4 0 10
-3 11 -13 2 -8 -6 -17 -8 -20 -4 -9 9 -111 8 -125 -1 -7 -4 -12 -3 -12 3 0 5
-10 7 -22 5 -25 -6 -24 -6 -83 -1 -22 2 -48 0 -57 -5 -10 -5 -18 -3 -21 5 -4
9 -8 8 -16 -3 -8 -12 -11 -12 -11 -1 0 11 -3 11 -15 1 -9 -8 -15 -9 -15 -2 0
6 -10 9 -22 6 -13 -3 -27 -5 -33 -5 -108 6 -175 4 -175 -4 0 -7 -3 -7 -8 0
-10 14 -64 17 -56 3 5 -7 2 -8 -7 -2 -20 12 -39 14 -39 3 0 -6 -6 -7 -12 -2
-18 11 -52 10 -60 -2 -5 -7 -8 -7 -8 0 0 11 -329 13 -347 2 -6 -4 -14 -1 -17
5 -5 11 -7 11 -12 0 -3 -6 -11 -9 -17 -5 -20 12 -37 12 -37 0 0 -8 -3 -8 -8
-2 -9 13 -65 14 -74 0 -5 -6 -8 -5 -8 4 0 10 -3 11 -13 2 -8 -6 -17 -8 -21 -4
-12 12 -36 12 -36 0 0 -8 -3 -8 -8 -2 -9 13 -65 14 -74 0 -5 -6 -8 -6 -8 0 0
13 -70 14 -70 0 0 -6 -3 -7 -8 0 -4 6 -111 10 -284 10 -181 0 -274 -3 -270
-10 3 -5 -1 -5 -9 2 -9 7 -20 8 -29 3 -8 -5 -18 -6 -24 -3 -15 10 -66 11 -60
2 3 -5 -2 -6 -10 -3 -26 10 -355 10 -349 0 4 -5 0 -5 -8 0 -19 12 -33 12 -41
-1 -5 -7 -8 -6 -8 1 0 12 -41 11 -59 -1 -6 -3 -11 -3 -11 2 0 12 -154 10 -162
-2 -5 -7 -8 -7 -8 0 0 11 -308 12 -335 1 -8 -3 -15 -2 -15 2 0 4 -342 7 -759
7 -450 0 -757 -4 -754 -9 4 -5 0 -5 -8 0 -21 13 -39 14 -39 1 0 -8 -3 -8 -8
-2 -9 13 -432 14 -425 1 4 -5 0 -5 -8 0 -21 13 -39 14 -39 1 0 -8 -3 -8 -8 -2
-4 6 -18 10 -32 10 -14 0 -28 -4 -32 -10 -5 -7 -8 -7 -8 0 0 6 -111 10 -312
10 -197 0 -316 -4 -320 -10 -5 -7 -8 -7 -8 0 0 6 -39 9 -100 9 -57 -1 -98 2
-94 7 7 12 1 12 -11 0z m7850 -69 c-3 -3 -11 0 -18 7 -9 10 -8 11 6 5 10 -3
15 -9 12 -12z m-6150 -992 c3 -5 1 -10 -4 -10 -6 0 -11 5 -11 10 0 6 2 10 4
10 3 0 8 -4 11 -10z m1380 -8 c-3 -3 -11 0 -18 7 -9 10 -8 11 6 5 10 -3 15 -9
12 -12z m680 0 c-3 -3 -11 0 -18 7 -9 10 -8 11 6 5 10 -3 15 -9 12 -12z m380
9 c3 -5 2 -12 -3 -15 -5 -3 -9 1 -9 9 0 17 3 19 12 6z m200 -1 c-3 -5 -12 -10
-18 -10 -7 0 -6 4 3 10 19 12 23 12 15 0z m56 -13 c-10 -9 -11 -8 -5 6 3 10 9
15 12 12 3 -3 0 -11 -7 -18z m145 11 c4 -7 3 -8 -4 -4 -7 4 -12 2 -12 -5 0 -7
-3 -10 -6 -6 -6 5 3 27 11 27 2 0 7 -5 11 -12z m645 -11 c-10 -9 -11 -8 -5 6
3 10 9 15 12 12 3 -3 0 -11 -7 -18z m742 8 c-3 -9 -8 -14 -10 -11 -3 3 -2 9 2
15 9 16 15 13 8 -4z m101 -10 c6 -17 -9 -29 -24 -20 -5 3 -10 1 -10 -6 0 -10
-3 -10 -11 -2 -6 6 -8 17 -4 23 5 8 10 9 18 1 20 -20 30 -11 12 9 -16 17 -16
20 -3 15 9 -4 19 -13 22 -20z m456 15 c0 -5 -5 -10 -11 -10 -5 0 -7 5 -4 10 3
6 8 10 11 10 2 0 4 -4 4 -10z m705 0 c-3 -5 -12 -10 -18 -10 -7 0 -6 4 3 10
19 12 23 12 15 0z m172 -11 c2 -16 -1 -19 -9 -11 -5 5 -7 15 -4 21 10 15 12
14 13 -10z m-7290 5 c-3 -3 -12 -4 -19 -1 -8 3 -5 6 6 6 11 1 17 -2 13 -5z
m271 -19 c-3 -3 -9 2 -12 12 -6 14 -5 15 5 6 7 -7 10 -15 7 -18z m39 19 c-3
-3 -12 -4 -19 -1 -8 3 -5 6 6 6 11 1 17 -2 13 -5z m278 -4 c11 -17 -5 -32 -21
-19 -7 6 -11 15 -8 20 7 12 21 11 29 -1z m6763 -8 c5 -16 -10 -15 -33 1 -17
13 -16 14 5 12 13 -1 26 -7 28 -13z m-5788 -1 c0 -5 -6 -14 -14 -20 -10 -9
-15 -8 -19 3 -3 8 -3 17 0 20 9 9 33 7 33 -3z m710 -1 c0 -16 -17 -20 -28 -7
-8 10 -6 13 9 14 10 1 19 -2 19 -7z m251 -13 c-10 -9 -11 -8 -5 6 3 10 9 15
12 12 3 -3 0 -11 -7 -18z m109 -4 c0 -13 -3 -13 -15 -3 -8 7 -12 16 -9 21 8
13 24 1 24 -18z m710 21 c0 -8 -19 -13 -24 -6 -3 5 1 9 9 9 8 0 15 -2 15 -3z
m160 0 c0 -8 -19 -13 -24 -6 -3 5 1 9 9 9 8 0 15 -2 15 -3z m922 -3 c8 11 9
11 6 1 -4 -16 -22 -18 -25 -2 -1 7 0 6 4 -1 4 -8 8 -7 15 2z m1117 0 c2 -1 -2
-8 -9 -16 -10 -12 -16 -13 -26 -4 -29 24 -17 30 35 20z m288 -4 c-4 -13 -57
-21 -57 -9 0 14 10 20 36 20 14 0 23 -5 21 -11z m190 -2 c8 -9 12 -19 9 -23
-4 -3 -11 -1 -15 7 -5 7 -11 12 -15 12 -23 -3 -30 0 -16 9 19 13 19 13 37 -5z
m177 -11 c3 -9 -1 -14 -11 -14 -9 0 -13 3 -10 7 4 3 2 12 -5 20 -8 11 -7 12 5
7 8 -3 18 -12 21 -20z m654 14 c8 -10 4 -13 -16 -14 -15 -1 -21 1 -14 3 6 3
10 9 6 14 -8 14 12 11 24 -3z m116 3 c3 -5 0 -11 -8 -14 -15 -6 -26 1 -26 15
0 11 27 10 34 -1z m-5454 -17 c0 -8 -5 -12 -10 -9 -6 4 -8 11 -5 16 9 14 15
11 15 -7z m110 -5 c0 -6 -4 -7 -10 -4 -5 3 -10 11 -10 16 0 6 5 7 10 4 6 -3
10 -11 10 -16z m3775 11 c3 -6 -1 -7 -9 -4 -18 7 -21 14 -7 14 6 0 13 -4 16
-10z m-3610 -10 c-3 -5 -11 -10 -16 -10 -6 0 -7 5 -4 10 3 6 11 10 16 10 6 0
7 -4 4 -10z"/>
<path d="M1825 5780 c3 -5 8 -10 11 -10 2 0 4 5 4 10 0 6 -5 10 -11 10 -5 0
-7 -4 -4 -10z"/>
<path d="M6766 5768 c3 -5 10 -6 15 -3 13 9 11 12 -6 12 -8 0 -12 -4 -9 -9z"/>
<path d="M1901 5783 c1 -5 0 -10 -1 -13 -7 -19 -7 -39 1 -34 5 3 7 9 4 14 -3
4 2 11 11 14 8 3 12 10 9 16 -7 12 -26 14 -24 3z"/>
<path d="M8757 5783 c-3 -5 1 -17 9 -28 8 -10 14 -13 14 -7 0 10 5 10 20 2 17
-9 19 -8 13 7 -6 17 -5 17 14 0 21 -18 41 -9 28 13 -6 10 -40 8 -51 -3 -4 -4
-15 0 -25 9 -9 8 -19 12 -22 7z m93 -23 c0 -5 -2 -10 -4 -10 -3 0 -8 5 -11 10
-3 6 -1 10 4 10 6 0 11 -4 11 -10z"/>
<path d="M8880 5775 c-7 -9 -10 -18 -6 -22 3 -3 6 0 6 8 0 11 2 12 9 1 7 -11
9 -11 14 2 8 21 -8 29 -23 11z"/>
<path d="M1082 5760 c7 -10 14 -18 15 -16 6 6 -9 36 -18 36 -5 0 -4 -9 3 -20z"/>
<path d="M1214 5762 c0 -10 8 -19 17 -19 16 -2 17 0 1 18 -9 10 -17 19 -17 19
0 0 -1 -8 -1 -18z"/>
<path d="M2166 5767 c3 -9 9 -17 13 -18 3 0 13 -2 22 -4 9 -1 16 4 16 11 0 10
-4 11 -11 4 -6 -6 -16 -4 -28 7 -18 16 -18 16 -12 0z"/>
<path d="M2241 5772 c-6 -2 -11 -9 -11 -14 0 -6 3 -8 6 -5 4 3 16 2 27 -4 15
-8 18 -8 12 1 -4 7 -1 16 6 21 10 6 8 8 -7 7 -12 -1 -26 -4 -33 -6z"/>
<path d="M2725 5770 c-4 -6 -11 -8 -16 -5 -5 4 -9 1 -9 -4 0 -17 27 -13 34 4
6 17 0 20 -9 5z"/>
<path d="M3459 5778 c-1 -2 -3 -13 -4 -26 -2 -17 1 -20 11 -11 7 6 10 17 7 25
-5 13 -11 18 -14 12z"/>
<path d="M3696 5772 c-2 -4 -1 -14 5 -22 7 -12 9 -12 9 -1 0 11 3 11 15 1 9
-7 17 -11 19 -9 2 2 -6 12 -19 22 -13 9 -26 13 -29 9z"/>
<path d="M3933 5758 c14 -14 23 -15 38 -8 23 13 24 17 4 17 -8 0 -15 -5 -15
-11 0 -6 -5 -4 -10 4 -5 8 -10 11 -10 6 0 -5 -6 -5 -13 0 -7 5 -4 1 6 -8z"/>
<path d="M4157 5765 c-10 -9 -17 -11 -20 -5 -3 6 -4 5 -3 -1 4 -21 42 -18 42
3 0 22 -1 22 -19 3z"/>
<path d="M5027 5765 c-16 -12 -16 -13 -1 -19 10 -4 22 1 30 11 13 17 13 17 14
1 0 -10 5 -18 10 -18 16 0 -5 33 -22 36 -8 1 -22 -4 -31 -11z"/>
<path d="M5097 5773 c-3 -5 -2 -15 4 -23 7 -12 9 -12 9 -1 0 11 3 11 15 1 9
-7 18 -10 22 -6 3 3 1 6 -6 6 -7 0 -9 5 -5 13 4 6 4 9 -1 5 -4 -4 -14 -3 -21
3 -7 5 -15 6 -17 2z"/>
<path d="M5271 5761 c-9 -16 -8 -18 9 -14 21 6 26 18 11 28 -6 3 -15 -3 -20
-14z"/>
<path d="M5334 5768 c-4 -7 -4 -10 1 -6 4 4 14 3 22 -4 8 -6 17 -7 21 -2 4 5
6 8 3 7 -2 -1 -12 2 -22 7 -12 7 -20 6 -25 -2z"/>
<path d="M5416 5765 c4 -8 11 -15 16 -15 6 0 5 6 -2 15 -7 8 -14 15 -16 15 -2
0 -1 -7 2 -15z"/>
<path d="M5979 5777 c-8 -24 -4 -33 16 -33 14 0 21 5 18 12 -4 11 -31 28 -34
21z"/>
<path d="M6396 5769 c3 -5 10 -6 16 -3 7 5 9 1 5 -9 -3 -10 -2 -17 4 -17 18 0
5 33 -14 36 -9 1 -15 -2 -11 -7z"/>
<path d="M7307 5759 c3 -10 9 -19 14 -19 5 0 6 8 3 18 -5 14 -3 14 10 -2 10
-13 16 -15 16 -7 0 11 3 11 15 1 9 -7 18 -10 22 -6 3 3 1 6 -5 6 -7 0 -12 6
-12 13 0 7 -14 13 -34 14 -29 1 -33 -1 -29 -18z"/>
<path d="M7516 5765 c-19 -19 -21 -29 -3 -18 16 10 50 11 57 1 3 -4 11 1 17
11 10 15 9 19 -2 17 -8 -1 -18 -5 -21 -9 -4 -4 -13 -2 -20 3 -8 8 -17 6 -28
-5z"/>
<path d="M7711 5766 c-19 -11 -21 -14 -7 -19 10 -4 20 1 26 13 12 23 12 23
-19 6z"/>
<path d="M7919 5770 c-9 -5 -26 -8 -38 -5 -11 2 -21 -1 -21 -6 0 -6 6 -9 13
-6 6 2 20 0 31 -5 13 -7 16 -7 12 1 -9 14 0 14 24 1 13 -7 21 -5 31 8 11 14
11 15 -1 5 -10 -10 -16 -9 -24 2 -8 10 -16 11 -27 5z"/>
<path d="M8005 5768 c10 -26 34 -29 46 -7 9 18 8 19 -9 10 -13 -7 -22 -7 -31
2 -10 9 -11 8 -6 -5z"/>
<path d="M8278 5768 c-10 -8 -10 -9 2 -5 8 2 23 -2 33 -11 11 -10 17 -11 17
-4 0 7 0 15 0 20 0 10 -36 11 -52 0z"/>
<path d="M8368 5763 c-7 -9 -7 -13 1 -13 6 0 11 5 11 10 0 15 24 7 31 -9 4
-11 7 -10 11 5 4 16 0 20 -19 20 -13 0 -29 -6 -35 -13z"/>
<path d="M8710 5765 c-9 -10 -9 -15 -1 -15 6 0 11 5 11 12 0 6 7 3 16 -8 14
-18 15 -18 4 4 -13 26 -14 26 -30 7z"/>
<path d="M1026 5758 c3 -5 9 -7 12 -4 3 3 12 0 21 -6 13 -10 14 -10 4 2 -15
16 -46 23 -37 8z"/>
<path d="M1566 5757 c3 -10 9 -15 12 -12 3 3 0 11 -7 18 -10 9 -11 8 -5 -6z"/>
<path d="M2066 5758 c3 -4 9 -8 15 -8 5 0 9 4 9 8 0 5 -7 9 -15 9 -8 0 -12 -4
-9 -9z"/>
<path d="M2100 5758 c0 -4 4 -8 9 -8 6 0 12 4 15 8 3 5 -1 9 -9 9 -8 0 -15 -4
-15 -9z"/>
<path d="M2420 5758 c0 -4 4 -8 9 -8 6 0 12 4 15 8 3 5 -1 9 -9 9 -8 0 -15 -4
-15 -9z"/>
<path d="M4010 5755 c0 -8 4 -15 10 -15 5 0 7 7 4 15 -4 8 -8 15 -10 15 -2 0
-4 -7 -4 -15z"/>
<path d="M4111 5754 c0 -11 3 -14 6 -6 3 7 2 16 -1 19 -3 4 -6 -2 -5 -13z"/>
<path d="M4468 5758 c-5 -11 -2 -15 10 -14 9 2 18 9 20 17 3 12 2 12 -6 0 -8
-11 -10 -11 -14 0 -3 10 -6 9 -10 -3z"/>
<path d="M4511 5754 c0 -11 3 -14 6 -6 3 7 2 16 -1 19 -3 4 -6 -2 -5 -13z"/>
<path d="M4533 5754 c0 -8 4 -14 9 -14 4 0 8 5 8 12 0 9 3 9 12 0 7 -7 17 -12
23 -12 11 1 -24 23 -41 26 -6 1 -11 -5 -11 -12z"/>
<path d="M4605 5759 c-4 -6 -5 -12 -2 -15 2 -3 7 2 10 11 7 17 1 20 -8 4z"/>
<path d="M4655 5760 c-3 -5 -1 -10 4 -10 6 0 11 5 11 10 0 6 -2 10 -4 10 -3 0
-8 -4 -11 -10z"/>
<path d="M4685 5760 c-3 -5 -1 -10 4 -10 6 0 11 5 11 10 0 6 -2 10 -4 10 -3 0
-8 -4 -11 -10z"/>
<path d="M4764 5759 c-3 -6 -3 -13 0 -16 3 -4 6 -1 6 7 0 10 3 10 15 0 9 -7
17 -11 20 -9 2 3 -4 10 -15 17 -13 8 -21 8 -26 1z"/>
<path d="M4924 5758 c2 -7 11 -12 20 -10 10 2 23 0 30 -5 6 -4 3 0 -8 10 -14
13 -21 15 -26 6 -6 -8 -9 -8 -13 0 -3 7 -4 7 -3 -1z"/>
<path d="M5456 5761 c-3 -5 1 -12 10 -15 22 -8 25 -4 9 11 -8 7 -16 9 -19 4z"/>
<path d="M5497 5753 c3 -7 6 -13 8 -13 2 0 5 6 8 13 3 8 -1 14 -8 14 -7 0 -11
-6 -8 -14z"/>
<path d="M5594 5748 c0 -10 1 -18 3 -18 1 0 7 8 12 18 7 13 6 19 -2 19 -7 0
-13 -9 -13 -19z"/>
<path d="M6026 5758 c3 -4 9 -8 15 -8 5 0 9 4 9 8 0 5 -7 9 -15 9 -8 0 -12 -4
-9 -9z"/>
<path d="M6460 5761 c0 -5 7 -12 16 -15 14 -5 15 -4 4 9 -14 17 -20 19 -20 6z"/>
<path d="M6590 5760 c0 -5 5 -10 10 -10 6 0 10 5 10 10 0 6 -4 10 -10 10 -5 0
-10 -4 -10 -10z"/>
<path d="M6687 5758 c-7 -4 -4 -7 8 -6 11 0 27 -1 35 -4 8 -3 12 -3 7 -1 -4 3
-5 8 -3 12 6 9 -32 9 -47 -1z"/>
<path d="M6830 5760 c0 -5 5 -10 10 -10 6 0 10 5 10 10 0 6 -4 10 -10 10 -5 0
-10 -4 -10 -10z"/>
<path d="M6940 5761 c0 -5 7 -12 16 -15 14 -5 15 -4 4 9 -14 17 -20 19 -20 6z"/>
<path d="M6976 5757 c3 -10 9 -15 12 -12 3 3 0 11 -7 18 -10 9 -11 8 -5 -6z"/>
<path d="M7660 5760 c0 -5 5 -10 11 -10 5 0 7 5 4 10 -3 6 -8 10 -11 10 -2 0
-4 -4 -4 -10z"/>
<path d="M8916 5753 c-6 -14 -5 -15 5 -6 7 7 10 15 7 18 -3 3 -9 -2 -12 -12z"/>
<path d="M3576 5747 c3 -10 9 -15 12 -12 3 3 0 11 -7 18 -10 9 -11 8 -5 -6z"/>
<path d="M4720 5750 c8 -5 20 -10 25 -10 6 0 3 5 -5 10 -8 5 -19 10 -25 10 -5
0 -3 -5 5 -10z"/>
<path d="M5750 5750 c0 -6 7 -10 15 -10 8 0 15 2 15 4 0 2 -7 6 -15 10 -8 3
-15 1 -15 -4z"/>
<path d="M6153 5745 c0 -8 4 -12 9 -9 4 3 8 9 8 15 0 5 -4 9 -8 9 -5 0 -9 -7
-9 -15z"/>
<path d="M6558 5743 c7 -3 16 -2 19 1 4 3 -2 6 -13 5 -11 0 -14 -3 -6 -6z"/>
<path d="M6868 5743 c7 -3 16 -2 19 1 4 3 -2 6 -13 5 -11 0 -14 -3 -6 -6z"/>
<path d="M7635 5740 c3 -5 8 -10 11 -10 2 0 4 5 4 10 0 6 -5 10 -11 10 -5 0
-7 -4 -4 -10z"/>
<path d="M8268 5743 c6 -2 18 -2 25 0 6 3 1 5 -13 5 -14 0 -19 -2 -12 -5z"/>
<path d="M2393 5326 c5 -12 3 -15 -6 -9 -20 13 -361 12 -369 -1 -5 -7 -8 -7
-8 0 0 12 -49 13 -67 1 -8 -5 -13 -4 -13 2 0 6 -5 11 -11 11 -6 0 -8 -7 -5
-16 3 -9 2 -12 -5 -9 -6 4 -13 -2 -16 -14 -3 -12 -10 -18 -17 -14 -6 4 -4 -2
4 -13 8 -10 11 -16 6 -12 -12 10 -34 -15 -28 -31 3 -9 1 -12 -6 -7 -7 4 -12 2
-12 -4 0 -6 -4 -9 -8 -6 -5 3 -9 -1 -9 -9 0 -8 3 -12 7 -10 4 2 7 -2 7 -9 0
-8 -6 -12 -13 -9 -6 2 -15 -1 -20 -8 -4 -7 -3 -10 4 -5 7 4 10 -1 9 -14 -1
-11 -5 -20 -9 -20 -5 0 -4 -9 2 -19 8 -16 7 -19 -8 -16 -9 1 -16 8 -14 14 1 6
-2 11 -7 11 -13 0 -22 -28 -11 -35 6 -4 10 -11 10 -16 0 -6 -4 -8 -9 -5 -8 5
-8 -2 -2 -33 1 -2 7 2 15 9 8 6 12 18 10 25 -4 9 1 13 15 12 18 -1 19 -3 6
-17 -8 -9 -12 -20 -8 -25 5 -4 3 -5 -3 -2 -7 4 -15 0 -18 -9 -3 -8 -10 -13
-15 -9 -6 3 -8 -6 -5 -21 3 -14 -1 -33 -8 -42 -11 -13 -11 -14 1 -7 11 6 13 2
9 -19 -4 -20 -3 -25 6 -16 6 6 12 28 13 48 4 53 6 62 13 62 11 0 10 -63 -1
-76 -7 -9 -5 -16 8 -24 16 -10 16 -11 1 -6 -22 7 -22 3 -3 -35 14 -26 14 -30
0 -35 -8 -3 -12 -10 -9 -16 3 -5 13 -4 22 4 16 12 16 11 0 -7 -12 -14 -14 -25
-7 -37 6 -11 5 -19 -2 -24 -8 -4 -7 -9 2 -15 8 -5 9 -9 3 -9 -6 0 -17 7 -24
16 -8 8 -9 14 -4 13 23 -4 26 2 8 17 -10 8 -13 12 -5 8 10 -5 12 -3 7 5 -6 9
-11 9 -22 0 -16 -13 -19 -23 -4 -14 14 9 12 -8 -2 -24 -11 -11 -10 -12 1 -6
10 6 12 2 7 -13 -4 -11 -2 -23 3 -27 6 -3 9 0 8 7 -2 7 -2 10 0 5 3 -4 10 -4
16 -1 8 5 8 2 0 -6 -10 -11 -9 -18 5 -34 16 -20 16 -20 0 -7 -16 12 -18 11
-18 -14 0 -18 -4 -26 -13 -22 -16 6 -16 -31 -1 -41 11 -8 14 -92 3 -92 -4 0
-9 -11 -11 -25 -4 -20 -3 -23 8 -14 7 6 12 16 11 21 -1 6 4 13 12 16 10 3 12
0 8 -10 -3 -9 0 -22 6 -29 10 -11 9 -11 -3 -2 -13 10 -18 8 -29 -9 -9 -15 -10
-23 -1 -32 6 -6 10 -6 8 -1 -3 11 4 15 25 15 7 0 5 -5 -5 -10 -10 -6 -16 -22
-16 -41 1 -19 4 -25 9 -18 4 7 5 18 1 24 -3 5 1 4 10 -3 13 -10 17 -10 21 0 2
7 4 2 5 -12 0 -35 9 -69 24 -88 8 -10 9 -13 1 -9 -7 4 -10 1 -9 -8 1 -9 5 -14
8 -13 3 2 13 -4 23 -12 15 -12 17 -12 10 -1 -6 11 -5 12 6 5 8 -4 21 -10 29
-11 18 -4 786 -4 797 -1 14 5 55 -30 49 -41 -4 -6 -9 -21 -12 -33 -7 -33 -7
-945 0 -957 4 -5 2 -12 -4 -16 -6 -4 -8 -10 -6 -14 6 -9 8 -72 4 -134 -2 -26
-1 -53 3 -59 4 -6 3 -23 -1 -38 -4 -15 -4 -33 0 -41 5 -8 5 -33 0 -57 -4 -23
-4 -45 1 -48 4 -2 5 -15 1 -27 -5 -12 -7 -33 -5 -47 2 -14 3 -45 2 -70 -1 -63
-1 -63 4 -85 2 -11 1 -34 -4 -52 -4 -18 -3 -35 2 -38 4 -3 5 -16 1 -28 -5 -12
-7 -33 -5 -47 5 -43 5 -128 0 -137 -3 -5 -2 -15 3 -22 4 -8 4 -25 0 -40 -4
-14 -4 -35 0 -46 4 -11 4 -32 -1 -47 -4 -16 -4 -28 1 -28 4 0 5 -15 1 -33 -5
-18 -6 -41 -4 -52 3 -11 4 -31 3 -45 -1 -14 -1 -32 -1 -40 0 -8 1 -49 0 -90 0
-79 1 -148 3 -177 0 -10 0 -31 -1 -48 -2 -36 -1 -75 0 -112 1 -10 1 -36 0 -58
0 -22 -1 -57 -1 -77 0 -21 -1 -44 -2 -51 -1 -7 2 -25 6 -41 4 -15 3 -25 -1
-23 -7 5 -8 -24 -3 -113 1 -19 1 -37 0 -40 -6 -17 -6 -52 1 -56 4 -2 6 -14 3
-27 -2 -12 -4 -40 -4 -62 0 -22 1 -63 1 -92 0 -29 -2 -57 -6 -63 -3 -5 -3 -10
2 -10 4 0 8 -25 8 -55 0 -30 -3 -55 -6 -55 -4 0 -4 -15 1 -33 4 -18 3 -43 -1
-55 -5 -12 -5 -22 -1 -22 9 0 7 -54 -3 -69 -3 -6 -3 -11 2 -11 4 0 7 -28 5
-62 -3 -70 -3 -71 1 -113 1 -16 -1 -35 -6 -42 -4 -6 -4 -14 2 -17 6 -4 6 -18
1 -35 -4 -15 -5 -33 -1 -39 9 -15 7 -55 -4 -72 -5 -8 -5 -15 1 -17 5 -2 9 -19
8 -38 l-2 -35 628 0 628 0 -3 588 c-1 323 -5 615 -7 650 -3 34 -2 62 2 62 4 0
10 8 14 18 3 9 11 26 18 36 22 33 163 172 181 179 10 4 21 15 24 24 4 10 25
36 47 58 23 23 63 67 90 99 54 63 90 84 113 64 8 -6 12 -20 10 -30 -3 -10 -1
-18 5 -18 6 0 8 -13 4 -33 -4 -17 -8 -405 -9 -862 l-2 -830 504 -3 c297 -1
507 2 510 7 9 14 3 2598 -6 2671 -9 74 -2 152 15 158 7 2 12 10 12 17 0 8 8
19 18 24 9 6 13 11 8 11 -11 0 24 40 35 40 11 0 58 48 52 54 -3 2 4 13 15 24
11 11 22 18 25 16 2 -3 17 10 33 27 48 54 88 93 111 108 12 8 19 19 17 25 -2
6 17 25 41 41 25 17 47 37 50 46 6 18 55 67 55 54 0 -4 19 16 43 46 62 79 145
154 170 154 21 0 22 -5 23 -93 1 -50 -3 -92 -7 -92 -5 0 -6 -19 -3 -42 10 -83
12 -123 6 -133 -10 -15 -10 -168 0 -181 5 -7 6 -34 3 -60 -10 -87 -12 -149 -4
-159 9 -13 9 -177 0 -190 -4 -5 -7 -586 -7 -1290 l1 -1280 512 -3 c504 -2 512
-2 523 18 8 14 8 20 0 20 -6 0 -8 5 -4 12 10 16 12 58 3 58 -9 0 -6 21 4 38 5
7 3 12 -3 12 -6 0 -8 5 -4 12 11 17 11 58 1 58 -4 0 -3 9 3 20 6 12 7 20 1 20
-10 0 -9 19 2 38 5 7 3 12 -3 12 -6 0 -8 5 -4 12 12 18 11 58 -1 58 -5 0 -3 5
5 10 11 7 11 10 2 10 -10 0 -10 5 -2 20 6 12 7 20 1 20 -6 0 -6 11 -1 30 5 17
5 30 0 30 -10 0 -8 19 3 38 5 7 3 12 -3 12 -6 0 -8 5 -4 12 12 18 11 58 -1 58
-5 0 -3 5 5 10 11 7 11 10 2 10 -10 0 -10 5 -2 20 8 14 8 20 0 20 -8 0 -8 6 0
20 8 14 8 20 0 20 -8 0 -8 6 0 20 6 11 7 20 3 20 -9 0 -8 84 2 99 3 6 1 11 -5
11 -6 0 -8 5 -3 13 11 18 12 36 2 43 -5 3 -5 13 1 25 8 14 7 19 -2 19 -8 0 -9
3 -2 10 7 7 8 28 4 55 -4 24 -3 51 2 59 6 10 5 16 -2 16 -6 0 -8 5 -3 12 11
19 12 37 2 44 -6 3 -5 11 2 20 6 8 7 14 2 14 -5 0 -9 10 -7 22 1 13 3 23 4 23
1 0 3 8 5 18 2 9 -1 17 -6 17 -5 0 -5 10 -1 22 7 21 8 59 2 83 -1 6 -1 12 0
15 8 21 6 40 -3 40 -8 0 -8 3 -2 8 13 9 17 32 6 32 -6 0 -6 12 -1 30 6 21 5
30 -3 30 -8 0 -8 3 -2 8 11 8 13 47 2 58 -4 4 -1 14 6 22 10 13 9 14 -2 7 -11
-6 -12 -5 -5 6 12 20 14 39 3 39 -6 0 -7 4 -4 10 11 17 11 90 0 94 -7 3 -7 5
0 5 9 1 12 45 5 76 -1 6 -1 12 0 15 8 21 6 40 -3 40 -8 0 -8 3 -2 8 14 10 17
32 5 32 -7 0 -7 6 0 19 7 14 7 22 0 26 -8 5 -7 12 2 23 11 13 11 14 -1 7 -11
-6 -12 -5 -5 6 12 20 14 39 3 39 -6 0 -8 4 -4 9 10 17 13 71 3 77 -5 3 -3 13
4 22 11 13 11 14 -1 7 -11 -6 -12 -5 -5 6 12 20 14 39 3 39 -5 0 -5 10 -1 22
7 21 8 59 2 83 -1 6 -1 12 0 15 8 21 6 40 -3 40 -8 0 -8 3 -2 8 13 9 17 32 6
32 -6 0 -6 12 -1 30 6 21 5 30 -3 30 -8 0 -8 3 -2 8 11 8 13 47 2 58 -4 4 -1
14 6 22 10 13 9 14 -1 8 -12 -7 -12 -4 -2 15 10 17 10 24 1 27 -6 2 -9 7 -6
12 11 18 12 70 1 70 -6 0 -5 4 3 9 11 7 11 9 0 14 -8 3 -9 6 -4 6 9 1 12 45 5
76 -1 6 -1 12 0 15 8 21 6 40 -3 40 -8 0 -8 3 -2 8 14 10 17 32 5 32 -6 0 -6
9 -1 23 5 13 5 30 1 37 -5 8 -6 19 -2 25 11 18 11 35 -1 35 -8 0 -8 3 -2 8 14
10 17 32 4 32 -5 0 -7 5 -4 11 12 18 12 69 1 69 -6 0 -4 5 4 10 13 9 13 10 0
10 -12 0 -12 2 -1 9 9 6 10 11 2 15 -6 4 -8 13 -4 19 11 19 12 57 1 57 -6 0
-5 7 3 17 11 12 11 17 2 20 -8 3 -9 12 -5 26 9 25 8 67 -1 91 -4 10 -3 14 3
11 5 -3 8 4 7 15 -1 11 -5 20 -10 20 -5 0 -5 6 2 13 8 10 7 17 -2 27 -9 9 -9
11 0 6 8 -4 11 1 10 14 -1 11 -5 20 -10 20 -5 0 -5 6 2 13 8 10 7 17 -2 27 -9
9 -9 11 0 6 8 -4 11 1 10 14 -1 11 -5 20 -10 20 -5 0 -5 6 2 13 8 10 7 17 -2
27 -9 9 -9 11 0 6 8 -4 11 1 10 14 -1 11 -5 20 -10 20 -5 0 -4 7 3 15 10 12
10 18 1 29 -7 8 -8 16 -4 19 14 9 6 300 -11 382 -4 17 -3 35 2 42 9 15 -3 14
441 13 284 0 366 2 373 12 4 8 8 8 8 2 0 -6 8 -10 18 -9 33 2 56 23 59 54 5
51 11 96 13 96 1 0 2 19 3 43 2 23 -2 42 -8 42 -7 0 -7 3 0 8 14 9 14 45 0 54
-7 5 -6 8 1 8 12 0 13 38 1 57 -4 6 -3 14 2 17 8 5 8 27 1 46 -1 3 -1 10 0 15
6 29 5 67 -2 71 -5 3 -5 11 -1 17 11 17 11 57 1 63 -4 3 -5 11 -1 17 10 16 11
68 2 88 -5 9 -5 20 -1 24 11 11 9 65 -2 65 -6 0 -5 4 2 9 18 11 18 12 3 40
-10 17 -10 21 -1 16 9 -5 10 -2 3 11 -5 11 -9 40 -9 67 1 26 -2 47 -6 47 -3 0
-5 11 -3 25 1 14 0 23 -3 21 -9 -10 -43 15 -36 26 5 7 2 9 -8 5 -9 -3 -24 1
-35 9 -17 13 -16 14 12 8 l30 -6 -25 15 c-22 12 -27 12 -37 -1 -11 -14 -13
-14 -13 -1 0 8 -11 16 -26 17 -18 1 -23 -2 -18 -11 6 -9 4 -9 -7 -1 -20 16
-711 16 -702 0 4 -6 -1 -4 -11 4 -21 16 -73 14 -95 -3 -11 -9 -13 -9 -8 0 4 6
3 14 -3 18 -5 3 -10 3 -10 -2 0 -4 -123 -7 -272 -7 -191 1 -277 -2 -287 -10
-11 -8 -13 -8 -7 1 9 16 -132 15 -153 -1 -11 -8 -13 -8 -8 0 9 16 -212 16
-232 0 -11 -8 -13 -8 -8 0 5 9 -38 12 -163 10 -105 0 -172 3 -174 9 -3 7 -5 7
-5 0 -1 -6 -40 -9 -98 -8 -62 1 -103 -3 -112 -10 -11 -9 -13 -9 -8 0 6 9 -23
12 -118 10 -78 -1 -125 2 -125 8 0 7 -3 7 -8 0 -4 -6 -71 -10 -165 -10 -98 0
-157 4 -157 10 0 7 -3 6 -8 0 -9 -13 -135 -13 -144 0 -5 7 -8 7 -8 0 0 -6 -40
-9 -102 -8 -67 1 -108 -3 -117 -10 -12 -9 -13 -9 -7 1 6 10 -3 13 -41 11 -26
-1 -54 -7 -62 -13 -11 -8 -13 -8 -8 1 5 8 -7 11 -40 11 -27 0 -54 -5 -62 -11
-12 -9 -13 -9 -7 1 6 10 -6 12 -53 9 -33 -2 -65 1 -71 7 -7 7 -10 6 -10 -3 0
-7 -5 -9 -11 -5 -6 3 -15 0 -20 -7 -5 -8 -9 -9 -9 -3 0 15 -542 15 -552 0 -5
-8 -8 -7 -8 2 0 8 -16 12 -48 12 -26 0 -54 -6 -61 -12 -8 -8 -11 -8 -8 -2 5 8
-18 12 -78 12 -60 0 -83 -4 -78 -12 3 -6 -3 -3 -14 7 -11 9 -22 14 -25 11 -4
-3 -93 -6 -200 -6 -125 -1 -198 -5 -207 -12 -11 -8 -13 -8 -8 1 10 15 -52 15
-72 -1 -11 -8 -13 -8 -8 0 5 9 -60 12 -242 11 -137 0 -254 4 -261 8 -10 6 -12
4 -7 -9z m-585 -731 c0 -19 -3 -37 -8 -40 -4 -2 -7 3 -7 13 0 36 -3 43 -15 36
-9 -5 -9 -2 1 9 21 26 29 21 29 -18z m16 -47 c-5 -7 -9 -17 -9 -22 0 -5 -6
-11 -12 -13 -18 -6 -16 4 5 32 18 24 31 27 16 3z"/>
<path d="M1774 5142 c3 -5 0 -13 -6 -15 -9 -4 -10 -6 -1 -6 17 -1 25 16 12 25
-7 4 -9 3 -5 -4z"/>
<path d="M1770 4880 c-13 -8 -12 -10 3 -10 10 0 15 -5 12 -10 -4 -6 -10 -8
-14 -6 -4 3 -7 -8 -6 -23 0 -18 5 -27 17 -27 12 0 14 4 7 12 -7 9 -5 16 8 23
11 6 13 11 5 11 -7 0 -11 4 -8 8 9 15 -9 31 -24 22z"/>
<path d="M1765 4679 c1 -10 4 -21 8 -24 4 -3 5 -2 2 2 -3 3 0 12 5 18 7 9 6
14 -3 18 -9 3 -13 -2 -12 -14z"/>
</g>
</svg>
